<?xml version="1.0" standalone="no"?>
<!DOCTYPE svg PUBLIC "-//W3C//DTD SVG 20010904//EN"
 "http://www.w3.org/TR/2001/REC-SVG-20010904/DTD/svg10.dtd">
<svg version="1.0" xmlns="http://www.w3.org/2000/svg"
 width="64.000000pt" height="64.000000pt" viewBox="0 0 64.000000 64.000000"
 preserveAspectRatio="xMidYMid meet">
<metadata>
Created by potrace 1.16, written by Peter Selinger 2001-2019
</metadata>
<g transform="translate(0.000000,64.000000) scale(0.100000,-0.100000)"
fill="#000000" stroke="none">
<path d="M225 572 c-32 -10 -66 -33 -95 -62 -106 -105 -105 -275 1 -382 104
-104 274 -104 379 2 106 105 106 275 2 379 -76 76 -180 99 -287 63z m205 -45
c58 -30 105 -93 120 -160 36 -160 -116 -314 -274 -278 -65 15 -111 45 -146 93
-69 95 -59 220 25 303 75 76 178 92 275 42z"/>
<path d="M300 421 c-14 -27 -13 -31 9 -31 11 0 23 -9 26 -20 4 -13 18 -23 36
-27 32 -6 36 -15 14 -33 -8 -7 -15 -26 -15 -42 0 -25 -3 -29 -17 -23 -23 10
-43 10 -65 0 -15 -6 -18 -2 -18 22 0 20 -11 39 -33 61 -18 18 -36 32 -40 32
-16 0 -5 -28 22 -54 25 -24 28 -31 20 -64 -4 -20 -6 -39 -3 -41 3 -3 19 1 37
8 40 17 54 17 94 0 18 -7 34 -11 37 -8 3 2 1 22 -4 42 -7 35 -6 41 21 64 40
36 36 50 -14 57 -37 6 -46 12 -60 41 -19 40 -32 44 -47 16z"/>
</g>
</svg>
